{"title":"Dear John(2010) 720p AC3 AVCHD","uid":5832128,"size":4502109670,"categoryP":"video","categoryS":"hd___movies","magnet":"?xt=urn:btih:5dfb532c7e9823fca3a7e9a123d3f75e747d6dba&amp;dn=Dear+John%282010%29+720p+AC3+AVCHD&amp;tr=udp%3A%2F%2Ftracker.openbittorrent.com%3A80&amp;tr=udp%3A%2F%2Fopen.demonii.com%3A1337&amp;tr=udp%3A%2F%2Ftracker.coppersurfer.tk%3A6969&amp;tr=udp%3A%2F%2Fexodus.desync.com%3A6969","seeders":0,"leechers":0,"uploader":"maggieli","files":11,"time":1284558439,"description":"General\n\nComplete name                    : Dear John (2010) 720p AC3 AVCHD\\BDMV\\STREAM\\00000.m2ts\nFormat                           : BDAV\nFormat/Info                      : Blu-ray Video\nFile size                        : 4.19 GiB\nDuration                         : 1h 47mn\nOverall bit rate                 : 5 573 Kbps\nMaximum Overall bit rate         : 35.5 Mbps\n\nVideo\n\nFormat                           : AVC\nFormat/Info                      : Advanced Video Codec\nFormat profile                   : &lt;a class=&quot;__cf_email__&quot; href=&quot;/cdn-cgi/l/email-protection&quot; data-cfemail=&quot;aae2c3cdc2eae69e849a&quot;&gt;[email&amp;#160;protected]&lt;/a&gt;&lt;script data-cfhash='f9e31' type=&quot;text/javascript&quot;&gt;\n/* &lt;![CDATA[ */!function(){try{var t=&quot;currentScript&quot;in document?document.currentScript:function(){for(var t=document.getElementsByTagName(&quot;script&quot;),e=t.length;e--;)if(t[e].getAttribute(&quot;data-cfhash&quot;))return t[e]}();if(t&amp;&amp;t.previousSibling){var e,r,n,i,c=t.previousSibling,a=c.getAttribute(&quot;data-cfemail&quot;);if(a){for(e=&quot;&quot;,r=parseInt(a.substr(0,2),16),n=2;a.length-n;n+=2)i=parseInt(a.substr(n,2),16)^r,e+=String.fromCharCode(i);e=document.createTextNode(e),c.parentNode.replaceChild(e,c)}t.parentNode.removeChild(t);}}catch(u){}}()/* ]]&gt; */&lt;/script&gt;\nFormat settings, CABAC           : Yes\nFormat settings, ReFrames        : 3 frames\nDuration                         : 1h 47mn\nBit rate mode                    : Variable\nBit rate                         : 4 603 Kbps\nMaximum bit rate                 : 25.0 Mbps\nWidth                            : 1 280 pixels\nHeight                           : 720 pixels\nDisplay aspect ratio             : 16:9\nFrame rate                       : 23.976 fps\nColor space                      : YUV\nChroma subsampling               : 4:2:0\nBit depth                        : 8 bits\nScan type                        : Progressive\nBits/(Pixel*Frame)               : 0.208\nStream size                      : 3.54 GiB (84%)\n\n\nAudio\n\nFormat                           : AC-3\nDuration                         : 1h 47mn\nBit rate mode                    : Constant\nBit rate                         : 640 Kbps\nChannel(s)                       : 6 channels\nChannel positions                : Front: L C R, Side: L R, LFE\nSampling rate                    : 48.0 KHz\nStream size                      : 493 MiB (11%)\n\n","torrent":{"xt":"urn:btih:5dfb532c7e9823fca3a7e9a123d3f75e747d6dba","amp;dn":"Dear+John%282010%29+720p+AC3+AVCHD","amp;tr":["udp%3A%2F%2Ftracker.openbittorrent.com%3A80","udp%3A%2F%2Fopen.demonii.com%3A1337","udp%3A%2F%2Ftracker.coppersurfer.tk%3A6969","udp%3A%2F%2Fexodus.desync.com%3A6969"],"infoHash":"5dfb532c7e9823fca3a7e9a123d3f75e747d6dba","infoHashBuffer":{"type":"Buffer","data":[93,251,83,44,126,152,35,252,163,167,233,161,35,211,247,94,116,125,109,186]},"announce":[],"urlList":[]}}